<svg width="199" height="14" viewBox="0 0 199 14" fill="none" xmlns="http://www.w3.org/2000/svg">
<path opacity="0.54" d="M6.65137 8.40234H2.48145L1.54492 11H0.191406L3.99219 1.04688H5.14062L8.94824 11H7.60156L6.65137 8.40234ZM2.87793 7.32227H6.26172L4.56641 2.66699L2.87793 7.32227ZM17.5547 9.69434C17.2174 10.1774 16.7458 10.5397 16.1396 10.7812C15.5381 11.0182 14.8363 11.1367 14.0342 11.1367C13.223 11.1367 12.5029 10.9476 11.874 10.5693C11.2451 10.1865 10.7575 9.64421 10.4111 8.94238C10.0693 8.24056 9.89388 7.42708 9.88477 6.50195V5.63379C9.88477 4.13444 10.2334 2.97233 10.9307 2.14746C11.6325 1.32259 12.6169 0.910156 13.8838 0.910156C14.9229 0.910156 15.7591 1.17676 16.3926 1.70996C17.026 2.23861 17.4134 2.99056 17.5547 3.96582H16.2422C15.9961 2.64876 15.2122 1.99023 13.8906 1.99023C13.0111 1.99023 12.3434 2.30013 11.8877 2.91992C11.4365 3.53516 11.2087 4.42839 11.2041 5.59961V6.41309C11.2041 7.52962 11.4593 8.41829 11.9697 9.0791C12.4801 9.73535 13.1706 10.0635 14.041 10.0635C14.5332 10.0635 14.9639 10.0088 15.333 9.89941C15.7021 9.79004 16.0075 9.60547 16.249 9.3457V7.11035H13.9453V6.04395H17.5547V9.69434ZM19.749 11V1.04688H23.0029C24.083 1.04688 24.8942 1.27018 25.4365 1.7168C25.9834 2.16341 26.2568 2.82422 26.2568 3.69922C26.2568 4.16406 26.1247 4.5765 25.8604 4.93652C25.596 5.29199 25.236 5.56771 24.7803 5.76367C25.318 5.91406 25.7419 6.20117 26.0518 6.625C26.3662 7.04427 26.5234 7.54557 26.5234 8.12891C26.5234 9.02214 26.234 9.72396 25.6553 10.2344C25.0765 10.7448 24.2585 11 23.2012 11H19.749ZM21.0615 6.34473V9.92676H23.2285C23.8392 9.92676 24.32 9.76953 24.6709 9.45508C25.0264 9.13607 25.2041 8.69857 25.2041 8.14258C25.2041 6.94401 24.5524 6.34473 23.249 6.34473H21.0615ZM21.0615 5.29199H23.0439C23.6182 5.29199 24.0762 5.14844 24.418 4.86133C24.7643 4.57422 24.9375 4.18457 24.9375 3.69238C24.9375 3.14551 24.778 2.74902 24.459 2.50293C24.14 2.25228 23.6546 2.12695 23.0029 2.12695H21.0615V5.29199ZM31.7324 5.72266C31.7324 5.32617 31.8577 5.00033 32.1084 4.74512C32.3636 4.48991 32.7008 4.3623 33.1201 4.3623C33.5348 4.3623 33.8721 4.48763 34.1318 4.73828C34.3916 4.98438 34.5215 5.31934 34.5215 5.74316V5.99609C34.5215 6.39258 34.3962 6.71615 34.1455 6.9668C33.8949 7.21745 33.5553 7.34277 33.127 7.34277C32.7031 7.34277 32.3636 7.21745 32.1084 6.9668C31.8577 6.71159 31.7324 6.38346 31.7324 5.98242V5.72266ZM40.1338 11V1.04688H42.9434C43.8092 1.04688 44.5749 1.23828 45.2402 1.62109C45.9056 2.00391 46.4183 2.5485 46.7783 3.25488C47.1429 3.96126 47.3275 4.77246 47.332 5.68848V6.32422C47.332 7.26302 47.1497 8.08561 46.7852 8.79199C46.4251 9.49837 45.9079 10.0407 45.2334 10.4189C44.5635 10.7972 43.7819 10.9909 42.8887 11H40.1338ZM41.4463 2.12695V9.92676H42.8271C43.8389 9.92676 44.625 9.6123 45.1855 8.9834C45.7507 8.35449 46.0332 7.45898 46.0332 6.29688V5.71582C46.0332 4.58561 45.7666 3.70833 45.2334 3.08398C44.7048 2.45508 43.9528 2.13607 42.9775 2.12695H41.4463ZM53.6895 11C53.6165 10.8542 53.5573 10.5944 53.5117 10.2207C52.9238 10.8314 52.222 11.1367 51.4062 11.1367C50.6771 11.1367 50.0778 10.9316 49.6084 10.5215C49.1436 10.1068 48.9111 9.58268 48.9111 8.94922C48.9111 8.17904 49.2028 7.58203 49.7861 7.1582C50.374 6.72982 51.1989 6.51562 52.2607 6.51562H53.4912V5.93457C53.4912 5.49251 53.359 5.1416 53.0947 4.88184C52.8304 4.61751 52.4408 4.48535 51.9258 4.48535C51.4746 4.48535 51.0964 4.59928 50.791 4.82715C50.4857 5.05501 50.333 5.33073 50.333 5.6543H49.0615C49.0615 5.28516 49.1914 4.92969 49.4512 4.58789C49.7155 4.24154 50.071 3.9681 50.5176 3.76758C50.9688 3.56706 51.4632 3.4668 52.001 3.4668C52.8532 3.4668 53.5208 3.68099 54.0039 4.10938C54.487 4.5332 54.7376 5.11882 54.7559 5.86621V9.27051C54.7559 9.94954 54.8424 10.4896 55.0156 10.8906V11H53.6895ZM51.5908 10.0361C51.9873 10.0361 52.3633 9.93359 52.7188 9.72852C53.0742 9.52344 53.3317 9.25684 53.4912 8.92871V7.41113H52.5C50.9505 7.41113 50.1758 7.86458 50.1758 8.77148C50.1758 9.16797 50.3079 9.47786 50.5723 9.70117C50.8366 9.92448 51.1761 10.0361 51.5908 10.0361ZM58.4541 1.8125V3.60352H59.835V4.58105H58.4541V9.16797C58.4541 9.46419 58.5156 9.6875 58.6387 9.83789C58.7617 9.98372 58.9714 10.0566 59.2676 10.0566C59.4134 10.0566 59.6139 10.0293 59.8691 9.97461V11C59.5365 11.0911 59.2129 11.1367 58.8984 11.1367C58.3333 11.1367 57.9072 10.9658 57.6201 10.624C57.333 10.2822 57.1895 9.79688 57.1895 9.16797V4.58105H55.8428V3.60352H57.1895V1.8125H58.4541ZM64.3877 11.1367C63.3851 11.1367 62.5693 10.8086 61.9404 10.1523C61.3115 9.49154 60.9971 8.6097 60.9971 7.50684V7.27441C60.9971 6.54069 61.1361 5.88672 61.4141 5.3125C61.6966 4.73372 62.0885 4.28255 62.5898 3.95898C63.0957 3.63086 63.6426 3.4668 64.2305 3.4668C65.1921 3.4668 65.9395 3.78353 66.4727 4.41699C67.0059 5.05046 67.2725 5.95736 67.2725 7.1377V7.66406H62.2617C62.2799 8.39323 62.4919 8.9834 62.8975 9.43457C63.3076 9.88118 63.8271 10.1045 64.4561 10.1045C64.9027 10.1045 65.2809 10.0133 65.5908 9.83105C65.9007 9.64876 66.1719 9.40723 66.4043 9.10645L67.1768 9.70801C66.557 10.6605 65.6273 11.1367 64.3877 11.1367ZM64.2305 4.50586C63.7201 4.50586 63.2917 4.69271 62.9453 5.06641C62.599 5.43555 62.3848 5.95508 62.3027 6.625H66.0078V6.5293C65.9714 5.88672 65.7982 5.38997 65.4883 5.03906C65.1784 4.68359 64.7591 4.50586 64.2305 4.50586ZM69.9385 3.60352L69.9795 4.5332C70.5446 3.82227 71.2829 3.4668 72.1943 3.4668C73.7575 3.4668 74.5459 4.34863 74.5596 6.1123V11H73.2949V6.10547C73.2904 5.57227 73.1673 5.17806 72.9258 4.92285C72.6888 4.66764 72.3174 4.54004 71.8115 4.54004C71.4014 4.54004 71.0413 4.64941 70.7314 4.86816C70.4215 5.08691 70.18 5.37402 70.0068 5.72949V11H68.7422V3.60352H69.9385ZM80.7734 9.03809C80.7734 8.69629 80.6436 8.43197 80.3838 8.24512C80.1286 8.05371 79.6797 7.88965 79.0371 7.75293C78.3991 7.61621 77.891 7.45215 77.5127 7.26074C77.139 7.06934 76.861 6.84147 76.6787 6.57715C76.501 6.31283 76.4121 5.99837 76.4121 5.63379C76.4121 5.02767 76.6673 4.51497 77.1777 4.0957C77.6927 3.67643 78.349 3.4668 79.1465 3.4668C79.985 3.4668 80.6641 3.68327 81.1836 4.11621C81.7077 4.54915 81.9697 5.10286 81.9697 5.77734H80.6982C80.6982 5.43099 80.5501 5.13249 80.2539 4.88184C79.9622 4.63118 79.5931 4.50586 79.1465 4.50586C78.6862 4.50586 78.3262 4.60612 78.0664 4.80664C77.8066 5.00716 77.6768 5.26921 77.6768 5.59277C77.6768 5.89811 77.7975 6.12826 78.0391 6.2832C78.2806 6.43815 78.7158 6.58626 79.3447 6.72754C79.9782 6.86882 80.4909 7.03743 80.8828 7.2334C81.2747 7.42936 81.5641 7.66634 81.751 7.94434C81.9424 8.21777 82.0381 8.55273 82.0381 8.94922C82.0381 9.61003 81.7738 10.141 81.2451 10.542C80.7165 10.9385 80.0306 11.1367 79.1875 11.1367C78.5951 11.1367 78.071 11.0319 77.6152 10.8223C77.1595 10.6126 76.8018 10.321 76.542 9.94727C76.2868 9.56901 76.1592 9.16113 76.1592 8.72363H77.4238C77.4466 9.14746 77.6152 9.4847 77.9297 9.73535C78.2487 9.98145 78.668 10.1045 79.1875 10.1045C79.666 10.1045 80.0488 10.0088 80.3359 9.81738C80.6276 9.62142 80.7734 9.36165 80.7734 9.03809ZM86.6523 10.1045C87.1035 10.1045 87.4977 9.96777 87.835 9.69434C88.1722 9.4209 88.359 9.0791 88.3955 8.66895H89.5918C89.569 9.09277 89.4232 9.49609 89.1543 9.87891C88.8854 10.2617 88.5254 10.5671 88.0742 10.7949C87.6276 11.0228 87.1536 11.1367 86.6523 11.1367C85.6452 11.1367 84.8431 10.8018 84.2461 10.1318C83.6536 9.45736 83.3574 8.53678 83.3574 7.37012V7.1582C83.3574 6.43815 83.4896 5.79785 83.7539 5.2373C84.0182 4.67676 84.3965 4.24154 84.8887 3.93164C85.3854 3.62174 85.971 3.4668 86.6455 3.4668C87.4749 3.4668 88.1631 3.71517 88.71 4.21191C89.2614 4.70866 89.5553 5.35352 89.5918 6.14648H88.3955C88.359 5.66797 88.1768 5.27604 87.8486 4.9707C87.5251 4.66081 87.124 4.50586 86.6455 4.50586C86.0029 4.50586 85.5039 4.73828 85.1484 5.20312C84.7975 5.66341 84.6221 6.33105 84.6221 7.20605V7.44531C84.6221 8.29753 84.7975 8.95378 85.1484 9.41406C85.4993 9.87435 86.0007 10.1045 86.6523 10.1045ZM92.2783 4.49902C92.8389 3.81087 93.568 3.4668 94.4658 3.4668C96.029 3.4668 96.8174 4.34863 96.8311 6.1123V11H95.5664V6.10547C95.5618 5.57227 95.4388 5.17806 95.1973 4.92285C94.9603 4.66764 94.5889 4.54004 94.083 4.54004C93.6729 4.54004 93.3128 4.64941 93.0029 4.86816C92.693 5.08691 92.4515 5.37402 92.2783 5.72949V11H91.0137V0.5H92.2783V4.49902ZM103.291 10.2686C102.799 10.8473 102.076 11.1367 101.124 11.1367C100.336 11.1367 99.734 10.9089 99.3193 10.4531C98.9092 9.99284 98.7018 9.3138 98.6973 8.41602V3.60352H99.9619V8.38184C99.9619 9.50293 100.418 10.0635 101.329 10.0635C102.295 10.0635 102.938 9.70345 103.257 8.9834V3.60352H104.521V11H103.318L103.291 10.2686ZM108.165 1.8125V3.60352H109.546V4.58105H108.165V9.16797C108.165 9.46419 108.227 9.6875 108.35 9.83789C108.473 9.98372 108.682 10.0566 108.979 10.0566C109.124 10.0566 109.325 10.0293 109.58 9.97461V11C109.247 11.0911 108.924 11.1367 108.609 11.1367C108.044 11.1367 107.618 10.9658 107.331 10.624C107.044 10.2822 106.9 9.79688 106.9 9.16797V4.58105H105.554V3.60352H106.9V1.8125H108.165ZM112.219 9.96777H116.546V11H110.674V10.0703L114.755 4.64941H110.735V3.60352H116.341V4.49902L112.219 9.96777ZM121.434 5.72266C121.434 5.32617 121.559 5.00033 121.81 4.74512C122.065 4.48991 122.402 4.3623 122.821 4.3623C123.236 4.3623 123.573 4.48763 123.833 4.73828C124.093 4.98438 124.223 5.31934 124.223 5.74316V5.99609C124.223 6.39258 124.097 6.71615 123.847 6.9668C123.596 7.21745 123.257 7.34277 122.828 7.34277C122.404 7.34277 122.065 7.21745 121.81 6.9668C121.559 6.71159 121.434 6.38346 121.434 5.98242V5.72266ZM131.243 11H129.931V1.04688H131.243V11ZM134.641 3.60352L134.675 4.42383C135.217 3.78581 135.949 3.4668 136.869 3.4668C137.904 3.4668 138.608 3.86328 138.981 4.65625C139.228 4.30078 139.547 4.01367 139.938 3.79492C140.335 3.57617 140.802 3.4668 141.34 3.4668C142.962 3.4668 143.787 4.32585 143.814 6.04395V11H142.55V6.11914C142.55 5.59049 142.429 5.19629 142.188 4.93652C141.946 4.6722 141.54 4.54004 140.971 4.54004C140.501 4.54004 140.112 4.68132 139.802 4.96387C139.492 5.24186 139.312 5.61784 139.262 6.0918V11H137.99V6.15332C137.99 5.0778 137.464 4.54004 136.411 4.54004C135.582 4.54004 135.014 4.89323 134.709 5.59961V11H133.444V3.60352H134.641ZM151.977 7.38379C151.977 8.50944 151.719 9.41634 151.204 10.1045C150.689 10.7926 149.992 11.1367 149.112 11.1367C148.215 11.1367 147.508 10.8519 146.993 10.2822V13.8438H145.729V3.60352H146.884L146.945 4.42383C147.46 3.78581 148.176 3.4668 149.092 3.4668C149.98 3.4668 150.682 3.80176 151.197 4.47168C151.717 5.1416 151.977 6.07357 151.977 7.26758V7.38379ZM150.712 7.24023C150.712 6.40625 150.534 5.74772 150.179 5.26465C149.823 4.78158 149.336 4.54004 148.716 4.54004C147.95 4.54004 147.376 4.87956 146.993 5.55859V9.09277C147.371 9.76725 147.95 10.1045 148.729 10.1045C149.336 10.1045 149.816 9.86523 150.172 9.38672C150.532 8.90365 150.712 8.18815 150.712 7.24023ZM157.165 4.73828C156.974 4.70638 156.766 4.69043 156.543 4.69043C155.714 4.69043 155.151 5.04362 154.854 5.75V11H153.59V3.60352H154.82L154.841 4.45801C155.256 3.7972 155.843 3.4668 156.604 3.4668C156.851 3.4668 157.037 3.4987 157.165 3.5625V4.73828ZM161.267 11.1367C160.264 11.1367 159.448 10.8086 158.819 10.1523C158.19 9.49154 157.876 8.6097 157.876 7.50684V7.27441C157.876 6.54069 158.015 5.88672 158.293 5.3125C158.576 4.73372 158.967 4.28255 159.469 3.95898C159.975 3.63086 160.521 3.4668 161.109 3.4668C162.071 3.4668 162.818 3.78353 163.352 4.41699C163.885 5.05046 164.151 5.95736 164.151 7.1377V7.66406H159.141C159.159 8.39323 159.371 8.9834 159.776 9.43457C160.187 9.88118 160.706 10.1045 161.335 10.1045C161.782 10.1045 162.16 10.0133 162.47 9.83105C162.78 9.64876 163.051 9.40723 163.283 9.10645L164.056 9.70801C163.436 10.6605 162.506 11.1367 161.267 11.1367ZM161.109 4.50586C160.599 4.50586 160.171 4.69271 159.824 5.06641C159.478 5.43555 159.264 5.95508 159.182 6.625H162.887V6.5293C162.85 5.88672 162.677 5.38997 162.367 5.03906C162.057 4.68359 161.638 4.50586 161.109 4.50586ZM169.928 9.03809C169.928 8.69629 169.798 8.43197 169.538 8.24512C169.283 8.05371 168.834 7.88965 168.191 7.75293C167.553 7.61621 167.045 7.45215 166.667 7.26074C166.293 7.06934 166.015 6.84147 165.833 6.57715C165.655 6.31283 165.566 5.99837 165.566 5.63379C165.566 5.02767 165.822 4.51497 166.332 4.0957C166.847 3.67643 167.503 3.4668 168.301 3.4668C169.139 3.4668 169.818 3.68327 170.338 4.11621C170.862 4.54915 171.124 5.10286 171.124 5.77734H169.853C169.853 5.43099 169.704 5.13249 169.408 4.88184C169.117 4.63118 168.747 4.50586 168.301 4.50586C167.84 4.50586 167.48 4.60612 167.221 4.80664C166.961 5.00716 166.831 5.26921 166.831 5.59277C166.831 5.89811 166.952 6.12826 167.193 6.2832C167.435 6.43815 167.87 6.58626 168.499 6.72754C169.132 6.86882 169.645 7.03743 170.037 7.2334C170.429 7.42936 170.718 7.66634 170.905 7.94434C171.097 8.21777 171.192 8.55273 171.192 8.94922C171.192 9.61003 170.928 10.141 170.399 10.542C169.871 10.9385 169.185 11.1367 168.342 11.1367C167.749 11.1367 167.225 11.0319 166.77 10.8223C166.314 10.6126 165.956 10.321 165.696 9.94727C165.441 9.56901 165.313 9.16113 165.313 8.72363H166.578C166.601 9.14746 166.77 9.4847 167.084 9.73535C167.403 9.98145 167.822 10.1045 168.342 10.1045C168.82 10.1045 169.203 10.0088 169.49 9.81738C169.782 9.62142 169.928 9.36165 169.928 9.03809ZM177.146 9.03809C177.146 8.69629 177.017 8.43197 176.757 8.24512C176.502 8.05371 176.053 7.88965 175.41 7.75293C174.772 7.61621 174.264 7.45215 173.886 7.26074C173.512 7.06934 173.234 6.84147 173.052 6.57715C172.874 6.31283 172.785 5.99837 172.785 5.63379C172.785 5.02767 173.04 4.51497 173.551 4.0957C174.066 3.67643 174.722 3.4668 175.52 3.4668C176.358 3.4668 177.037 3.68327 177.557 4.11621C178.081 4.54915 178.343 5.10286 178.343 5.77734H177.071C177.071 5.43099 176.923 5.13249 176.627 4.88184C176.335 4.63118 175.966 4.50586 175.52 4.50586C175.059 4.50586 174.699 4.60612 174.439 4.80664C174.18 5.00716 174.05 5.26921 174.05 5.59277C174.05 5.89811 174.171 6.12826 174.412 6.2832C174.654 6.43815 175.089 6.58626 175.718 6.72754C176.351 6.86882 176.864 7.03743 177.256 7.2334C177.648 7.42936 177.937 7.66634 178.124 7.94434C178.315 8.21777 178.411 8.55273 178.411 8.94922C178.411 9.61003 178.147 10.141 177.618 10.542C177.09 10.9385 176.404 11.1367 175.561 11.1367C174.968 11.1367 174.444 11.0319 173.988 10.8223C173.533 10.6126 173.175 10.321 172.915 9.94727C172.66 9.56901 172.532 9.16113 172.532 8.72363H173.797C173.82 9.14746 173.988 9.4847 174.303 9.73535C174.622 9.98145 175.041 10.1045 175.561 10.1045C176.039 10.1045 176.422 10.0088 176.709 9.81738C177.001 9.62142 177.146 9.36165 177.146 9.03809ZM184.625 10.2686C184.133 10.8473 183.41 11.1367 182.458 11.1367C181.67 11.1367 181.068 10.9089 180.653 10.4531C180.243 9.99284 180.036 9.3138 180.031 8.41602V3.60352H181.296V8.38184C181.296 9.50293 181.752 10.0635 182.663 10.0635C183.629 10.0635 184.272 9.70345 184.591 8.9834V3.60352H185.855V11H184.652L184.625 10.2686ZM188.973 3.60352L189.007 4.42383C189.549 3.78581 190.281 3.4668 191.201 3.4668C192.236 3.4668 192.94 3.86328 193.313 4.65625C193.56 4.30078 193.879 4.01367 194.271 3.79492C194.667 3.57617 195.134 3.4668 195.672 3.4668C197.294 3.4668 198.119 4.32585 198.146 6.04395V11H196.882V6.11914C196.882 5.59049 196.761 5.19629 196.52 4.93652C196.278 4.6722 195.872 4.54004 195.303 4.54004C194.833 4.54004 194.444 4.68132 194.134 4.96387C193.824 5.24186 193.644 5.61784 193.594 6.0918V11H192.322V6.15332C192.322 5.0778 191.796 4.54004 190.743 4.54004C189.914 4.54004 189.346 4.89323 189.041 5.59961V11H187.776V3.60352H188.973Z" fill="#4A4A4A"/>
</svg>
